<svg xmlns="http://www.w3.org/2000/svg" preserveAspectRatio="xMidYMid" viewBox="-35.5 0 327 327">
  <path d="M69.3 0c-1.7 0-3.4.7-5.5 2.3-4.9-2-9.7-2.6-14 1.3-6.6-.9-8.8.9-10.4 3-1.4 0-10.9-1.5-15.2 5C13.3 10.1 10 17.8 13.8 25c-2.2 3.4-4.5 6.8.7 13.3-1.9 3.7-.7 7.6 3.6 12.4-1.1 5.1 1.1 8.8 5.1 11.6-.7 7 6.5 11 8.6 12.5.8 4.1 2.5 8 10.7 10.1 1.4 6.1 6.3 7.2 11.1 8.4-15.8 9.2-29.3 21.3-29.2 50.9l-2.3 4.1a50.2 50.2 0 0 0-9 75.2c1.7 9 4.5 15.4 7 22.6a55 55 0 0 0 34.3 44 116 116 0 0 0 32.9 18.6 54.6 54.6 0 0 0 40.4 18.1c.2 0 28.3-5 41-18.1a116 116 0 0 0 32.9-18.7 55 55 0 0 0 34.3-43.9c2.5-7.2 5.3-13.6 7-22.6a50.2 50.2 0 0 0-9-75.2l-2.3-4.1c.1-29.6-13.4-41.7-29.2-50.9 4.8-1.3 9.7-2.3 11-8.4 8.3-2.1 10-6 10.8-10 2.1-1.5 9.3-5.6 8.6-12.6 4-2.8 6.2-6.5 5.1-11.6 4.3-4.8 5.5-8.7 3.6-12.4 5.2-6.5 3-10 .7-13.3 3.9-7.2.5-14.9-10.4-13.6-4.3-6.4-13.8-5-15.2-5-1.6-2-3.8-3.8-10.4-3-4.3-3.8-9.1-3.1-14-1.2-6-4.7-9.8-1-14.3.4-7-2.3-8.7.9-12.2 2.2-7.7-1.6-10.1 2-13.8 5.7h-4.3a49.3 49.3 0 0 0-19.6 28c-2-7.2-7.9-21.2-19.6-28h-4.3c-3.7-3.8-6-7.3-13.8-5.7C86.8 3.6 85.2.4 78 2.7 75.1 1.8 72.4 0 69.3 0L-11 141"/>
  <path fill="#75A928" d="M46 30.3c31 16 49 29 59 40-5 20.3-31.5 21.2-41.2 20.6 2-.9 3.7-2 4.3-3.7-2.5-1.7-11-.1-17-3.5 2.3-.5 3.3-1 4.4-2.7-5.7-1.8-11.8-3.3-15.4-6.3 2 0 3.8.4 6.3-1.3-5-2.8-10.5-5-14.7-9.1 2.6 0 5.5 0 6.3-1-4.6-2.9-8.6-6-11.8-9.6 3.7.4 5.2 0 6.1-.6-3.5-3.6-8-6.6-10-11 2.7.9 5.1 1.3 7-.1-1.2-2.7-6.4-4.3-9.3-10.6 2.9.3 6 .6 6.5 0C25.2 26 23 23 20.7 19.8c6.1-.1 15.4 0 15-.5l-3.8-4A30 30 0 0 1 48.5 17c2-1.5 0-3.5-2.5-5.6 5.1.7 9.7 1.9 13.9 3.5 2.2-2-1.5-4-3.2-6a35.5 35.5 0 0 1 14.5 5.7c2.4-2.3.1-4.3-1.5-6.3 6 2.2 9 5 12.2 7.8 1.1-1.4 2.8-2.5.8-6a31 31 0 0 1 9.7 8.4c2.6-1.6 1.6-4 1.6-6 4.4 3.6 7.2 7.4 10.6 11 .6-.4 1.2-2.1 1.8-4.8 10.4 10.1 25.2 35.7 3.8 45.8-18.3-15-40-26-64.2-34.2M210.7 30.3c-31 16-49 29-59 40 5 20.3 31.5 21.2 41.2 20.6-2-.9-3.7-2-4.3-3.7 2.5-1.7 11-.1 17-3.5-2.3-.5-3.3-1-4.4-2.7 5.7-1.8 11.8-3.3 15.4-6.3-2 0-3.8.4-6.3-1.3 5-2.8 10.5-5 14.7-9.1-2.6 0-5.5 0-6.3-1 4.6-2.9 8.6-6 11.8-9.6-3.7.4-5.2 0-6.1-.6 3.5-3.6 8-6.6 10-11-2.7.9-5.1 1.3-7-.1 1.2-2.7 6.4-4.3 9.3-10.6-2.9.3-6 .6-6.5 0 1.3-5.4 3.6-8.5 5.8-11.6-6.1-.1-15.4 0-15-.5l3.8-4a30 30 0 0 0-16.6 1.7c-2-1.5 0-3.5 2.5-5.6-5.1.7-9.7 1.9-13.9 3.5-2.2-2 1.5-4 3.2-6a35.5 35.5 0 0 0-14.5 5.7c-2.4-2.3-.1-4.3 1.5-6.3-6 2.2-9 5-12.2 7.8-1.1-1.4-2.8-2.5-.8-6a31 31 0 0 0-9.7 8.4c-2.6-1.6-1.6-4-1.6-6-4.4 3.6-7.2 7.4-10.6 11-.6-.4-1.2-2.1-1.8-4.8-10.4 10.1-25.2 35.7-3.8 45.8 18.3-15 40-26 64.2-34.2"/>
  <path fill="#BC1142" d="M166 237c0 18.9-16.5 34.3-37 34.4-20.6 0-37.3-15.2-37.4-34.1v-.4c-.1-18.9 16.4-34.3 37-34.4 20.5-.1 37.2 15.1 37.3 34v.4M107.2 139c15.5 10.1 18.2 33 6.2 51.1S79.3 214.7 64 204.6c-15.4-10-18.2-33-6.2-51 12-18.2 34.1-24.7 49.5-14.6M148.8 137.2c-15.4 10-18.2 33-6.2 51 12 18.2 34.2 24.7 49.6 14.6 15.4-10 18.2-33 6.2-51-12-18.2-34.2-24.7-49.6-14.6M30.3 155.5c16.6-4.5 5.6 68.8-8 62.8-14.8-12-19.6-47 8-62.8M222.5 154.6c-16.7-4.5-5.7 68.8 7.9 62.8 14.9-12 19.6-47-8-62.8M166 100c28.6-4.8 52.5 12.2 51.6 43.4-1 11.9-62.2-41.6-51.7-43.4M86.6 99.1C58 94.3 34.1 111.3 35 142.4c1 12 62.2-41.5 51.6-43.3M127.9 91.9c-17.2-.5-33.6 12.7-33.6 20.3 0 9.3 13.5 18.8 33.7 19 20.6.2 33.8-7.6 33.8-17.2 0-10.8-18.7-22.3-34-22.1M129 282c14.9-.6 34.9 4.9 35 12.1.2 7-18.2 23-36 22.6-18.5.8-36.6-15.1-36.4-20.6-.3-8.1 22.5-14.4 37.3-14M73.8 239.1c10.6 12.8 15.4 35.3 6.6 42-8.4 5-28.8 3-43.3-17.9-9.8-17.5-8.5-35.2-1.7-40.5 10.3-6.2 26.2 2.2 38.4 16.4M182 235c-11.5 13.5-18 38-9.6 46 8 6.2 29.6 5.3 45.5-16.8 11.6-14.8 7.7-39.6 1.1-46.2-9.8-7.5-23.9 2.2-37 17"/>
</svg>
